<svg xmlns="http://www.w3.org/2000/svg" width="680" height="442" viewBox="0 0 680 442" font-family="-apple-system, Segoe UI, Roboto, Helvetica, Arial, sans-serif">
  <defs>
    <marker id="ahg" viewBox="0 0 10 10" refX="8" refY="5" markerWidth="6" markerHeight="6" orient="auto-start-reverse"><path d="M2 1L8 5L2 9" fill="none" stroke="#8a8984" stroke-width="1.5" stroke-linecap="round" stroke-linejoin="round"/></marker>
    <marker id="aht" viewBox="0 0 10 10" refX="8" refY="5" markerWidth="6" markerHeight="6" orient="auto-start-reverse"><path d="M2 1L8 5L2 9" fill="none" stroke="#1d9e75" stroke-width="1.5" stroke-linecap="round" stroke-linejoin="round"/></marker>
  </defs>

  <rect width="680" height="442" rx="12" fill="#1a1a18"/>

  <rect x="245" y="56" width="190" height="46" rx="8" fill="#3a3a36" stroke="#57574f"/>
  <text x="340" y="78" text-anchor="middle" font-size="14" font-weight="600" fill="#ecebe4">Componente</text>
  <text x="340" y="93" text-anchor="middle" font-size="12" fill="#b8b6ac">home, proyectos, perfil…</text>

  <rect x="245" y="130" width="190" height="46" rx="8" fill="#5147b5" stroke="#6f66cc"/>
  <text x="340" y="152" text-anchor="middle" font-size="14" font-weight="600" fill="#ecebfb">rxResource</text>
  <text x="340" y="167" text-anchor="middle" font-size="12" fill="#c8c3f0">la petición como signal</text>

  <rect x="245" y="204" width="190" height="46" rx="8" fill="#5147b5" stroke="#6f66cc"/>
  <text x="340" y="226" text-anchor="middle" font-size="14" font-weight="600" fill="#ecebfb">PortfolioService</text>
  <text x="340" y="241" text-anchor="middle" font-size="12" fill="#c8c3f0">arma la URL del endpoint</text>

  <rect x="245" y="278" width="190" height="46" rx="8" fill="#5147b5" stroke="#6f66cc"/>
  <text x="340" y="300" text-anchor="middle" font-size="14" font-weight="600" fill="#ecebfb">HttpClient</text>
  <text x="340" y="315" text-anchor="middle" font-size="12" fill="#c8c3f0">hace el GET</text>

  <rect x="245" y="352" width="190" height="46" rx="8" fill="#0f6e56" stroke="#1d9e75"/>
  <text x="340" y="374" text-anchor="middle" font-size="14" font-weight="600" fill="#d8f3ea">Strapi Cloud</text>
  <text x="340" y="389" text-anchor="middle" font-size="12" fill="#a3e2cd">responde JSON { data }</text>

  <line x1="340" y1="102" x2="340" y2="130" stroke="#8a8984" stroke-width="1.5" marker-end="url(#ahg)"/>
  <line x1="340" y1="176" x2="340" y2="204" stroke="#8a8984" stroke-width="1.5" marker-end="url(#ahg)"/>
  <line x1="340" y1="250" x2="340" y2="278" stroke="#8a8984" stroke-width="1.5" marker-end="url(#ahg)"/>
  <line x1="340" y1="324" x2="340" y2="352" stroke="#8a8984" stroke-width="1.5" marker-end="url(#ahg)"/>
  <text x="352" y="120" text-anchor="start" font-size="12" fill="#b4b2a9">petición</text>

  <polyline points="245,375 205,375 205,153 245,153" fill="none" stroke="#1d9e75" stroke-width="1.5" stroke-dasharray="4 3" marker-end="url(#aht)"/>
  <text x="198" y="268" text-anchor="end" font-size="12" fill="#b4b2a9">respuesta</text>

  <line x1="435" y1="153" x2="466" y2="153" stroke="#8a8984" stroke-width="1.5" marker-end="url(#ahg)"/>
  <rect x="470" y="120" width="170" height="72" rx="8" fill="#3a3a36" stroke="#57574f"/>
  <text x="555" y="141" text-anchor="middle" font-size="14" font-weight="600" fill="#ecebe4">Plantilla (HTML)</text>
  <text x="555" y="159" text-anchor="middle" font-size="12" fill="#b8b6ac">isLoading() → cargando</text>
  <text x="555" y="174" text-anchor="middle" font-size="12" fill="#b8b6ac">value() → @for datos</text>
  <text x="555" y="189" text-anchor="middle" font-size="12" fill="#b8b6ac">error() → reintentar</text>

  <text x="340" y="424" text-anchor="middle" font-size="12" fill="#b4b2a9">morado: capa Angular · verde: Strapi · gris: tu interfaz</text>
</svg>
